<svg id="visual" viewBox="0 0 900 675" width="900" height="675" xmlns="http://www.w3.org/2000/svg" xmlns:xlink="http://www.w3.org/1999/xlink" version="1.1"><rect x="0" y="0" width="900" height="675" fill="#001220"></rect><path d="M0 366L21.5 378.5C43 391 86 416 128.8 416.5C171.7 417 214.3 393 257.2 377.8C300 362.7 343 356.3 385.8 364C428.7 371.7 471.3 393.3 514.2 393C557 392.7 600 370.3 642.8 363.5C685.7 356.7 728.3 365.3 771.2 372C814 378.7 857 383.3 878.5 385.7L900 388L900 676L878.5 676C857 676 814 676 771.2 676C728.3 676 685.7 676 642.8 676C600 676 557 676 514.2 676C471.3 676 428.7 676 385.8 676C343 676 300 676 257.2 676C214.3 676 171.7 676 128.8 676C86 676 43 676 21.5 676L0 676Z" fill="#9f2f5c"></path><path d="M0 412L21.5 415.3C43 418.7 86 425.3 128.8 441.7C171.7 458 214.3 484 257.2 496.2C300 508.3 343 506.7 385.8 492.2C428.7 477.7 471.3 450.3 514.2 449.2C557 448 600 473 642.8 483.2C685.7 493.3 728.3 488.7 771.2 471.7C814 454.7 857 425.3 878.5 410.7L900 396L900 676L878.5 676C857 676 814 676 771.2 676C728.3 676 685.7 676 642.8 676C600 676 557 676 514.2 676C471.3 676 428.7 676 385.8 676C343 676 300 676 257.2 676C214.3 676 171.7 676 128.8 676C86 676 43 676 21.5 676L0 676Z" fill="#b72b61"></path><path d="M0 536L21.5 524.2C43 512.3 86 488.7 128.8 485C171.7 481.3 214.3 497.7 257.2 501C300 504.3 343 494.7 385.8 492.7C428.7 490.7 471.3 496.3 514.2 505.8C557 515.3 600 528.7 642.8 528.2C685.7 527.7 728.3 513.3 771.2 512.5C814 511.7 857 524.3 878.5 530.7L900 537L900 676L878.5 676C857 676 814 676 771.2 676C728.3 676 685.7 676 642.8 676C600 676 557 676 514.2 676C471.3 676 428.7 676 385.8 676C343 676 300 676 257.2 676C214.3 676 171.7 676 128.8 676C86 676 43 676 21.5 676L0 676Z" fill="#cf2464"></path><path d="M0 588L21.5 579.8C43 571.7 86 555.3 128.8 550.2C171.7 545 214.3 551 257.2 559.7C300 568.3 343 579.7 385.8 582.8C428.7 586 471.3 581 514.2 578.2C557 575.3 600 574.7 642.8 565.5C685.7 556.3 728.3 538.7 771.2 542.5C814 546.3 857 571.7 878.5 584.3L900 597L900 676L878.5 676C857 676 814 676 771.2 676C728.3 676 685.7 676 642.8 676C600 676 557 676 514.2 676C471.3 676 428.7 676 385.8 676C343 676 300 676 257.2 676C214.3 676 171.7 676 128.8 676C86 676 43 676 21.5 676L0 676Z" fill="#e71966"></path><path d="M0 591L21.5 597.2C43 603.3 86 615.7 128.8 619C171.7 622.3 214.3 616.7 257.2 617.7C300 618.7 343 626.3 385.8 625.5C428.7 624.7 471.3 615.3 514.2 611.8C557 608.3 600 610.7 642.8 615.2C685.7 619.7 728.3 626.3 771.2 627C814 627.7 857 622.3 878.5 619.7L900 617L900 676L878.5 676C857 676 814 676 771.2 676C728.3 676 685.7 676 642.8 676C600 676 557 676 514.2 676C471.3 676 428.7 676 385.8 676C343 676 300 676 257.2 676C214.3 676 171.7 676 128.8 676C86 676 43 676 21.5 676L0 676Z" fill="#ff0066"></path></svg>