<svg id="visual" viewBox="0 0 900 600" width="900" height="600" xmlns="http://www.w3.org/2000/svg" xmlns:xlink="http://www.w3.org/1999/xlink" version="1.1"><rect x="0" y="0" width="900" height="600" fill="#001220"></rect><path d="M0 388L18.8 382.5C37.7 377 75.3 366 112.8 343.8C150.3 321.7 187.7 288.3 225.2 286.8C262.7 285.3 300.3 315.7 337.8 329.8C375.3 344 412.7 342 450.2 327.7C487.7 313.3 525.3 286.7 562.8 284.3C600.3 282 637.7 304 675.2 306.7C712.7 309.3 750.3 292.7 787.8 297.7C825.3 302.7 862.7 329.3 881.3 342.7L900 356L900 601L881.3 601C862.7 601 825.3 601 787.8 601C750.3 601 712.7 601 675.2 601C637.7 601 600.3 601 562.8 601C525.3 601 487.7 601 450.2 601C412.7 601 375.3 601 337.8 601C300.3 601 262.7 601 225.2 601C187.7 601 150.3 601 112.8 601C75.3 601 37.7 601 18.8 601L0 601Z" fill="#4facf7"></path><path d="M0 371L18.8 371.3C37.7 371.7 75.3 372.3 112.8 376C150.3 379.7 187.7 386.3 225.2 379.7C262.7 373 300.3 353 337.8 355.8C375.3 358.7 412.7 384.3 450.2 393C487.7 401.7 525.3 393.3 562.8 384C600.3 374.7 637.7 364.3 675.2 363.5C712.7 362.7 750.3 371.3 787.8 381.8C825.3 392.3 862.7 404.7 881.3 410.8L900 417L900 601L881.3 601C862.7 601 825.3 601 787.8 601C750.3 601 712.7 601 675.2 601C637.7 601 600.3 601 562.8 601C525.3 601 487.7 601 450.2 601C412.7 601 375.3 601 337.8 601C300.3 601 262.7 601 225.2 601C187.7 601 150.3 601 112.8 601C75.3 601 37.7 601 18.8 601L0 601Z" fill="#2b9dfc"></path><path d="M0 468L18.8 458.2C37.7 448.3 75.3 428.7 112.8 424.3C150.3 420 187.7 431 225.2 427.3C262.7 423.7 300.3 405.3 337.8 410.5C375.3 415.7 412.7 444.3 450.2 448.8C487.7 453.3 525.3 433.7 562.8 434C600.3 434.3 637.7 454.7 675.2 462.5C712.7 470.3 750.3 465.7 787.8 454.2C825.3 442.7 862.7 424.3 881.3 415.2L900 406L900 601L881.3 601C862.7 601 825.3 601 787.8 601C750.3 601 712.7 601 675.2 601C637.7 601 600.3 601 562.8 601C525.3 601 487.7 601 450.2 601C412.7 601 375.3 601 337.8 601C300.3 601 262.7 601 225.2 601C187.7 601 150.3 601 112.8 601C75.3 601 37.7 601 18.8 601L0 601Z" fill="#008cff"></path><path d="M0 463L18.8 463C37.7 463 75.3 463 112.8 458.5C150.3 454 187.7 445 225.2 454C262.7 463 300.3 490 337.8 501.3C375.3 512.7 412.7 508.3 450.2 506.2C487.7 504 525.3 504 562.8 493.3C600.3 482.7 637.7 461.3 675.2 464C712.7 466.7 750.3 493.3 787.8 503.5C825.3 513.7 862.7 507.3 881.3 504.2L900 501L900 601L881.3 601C862.7 601 825.3 601 787.8 601C750.3 601 712.7 601 675.2 601C637.7 601 600.3 601 562.8 601C525.3 601 487.7 601 450.2 601C412.7 601 375.3 601 337.8 601C300.3 601 262.7 601 225.2 601C187.7 601 150.3 601 112.8 601C75.3 601 37.7 601 18.8 601L0 601Z" fill="#007aff"></path><path d="M0 495L18.8 498.5C37.7 502 75.3 509 112.8 510.2C150.3 511.3 187.7 506.7 225.2 508C262.7 509.3 300.3 516.7 337.8 521.8C375.3 527 412.7 530 450.2 526.8C487.7 523.7 525.3 514.3 562.8 512.5C600.3 510.7 637.7 516.3 675.2 526C712.7 535.7 750.3 549.3 787.8 546.3C825.3 543.3 862.7 523.7 881.3 513.8L900 504L900 601L881.3 601C862.7 601 825.3 601 787.8 601C750.3 601 712.7 601 675.2 601C637.7 601 600.3 601 562.8 601C525.3 601 487.7 601 450.2 601C412.7 601 375.3 601 337.8 601C300.3 601 262.7 601 225.2 601C187.7 601 150.3 601 112.8 601C75.3 601 37.7 601 18.8 601L0 601Z" fill="#0066ff"></path></svg>